<svg width="24" height="24" viewBox="0 0 24 24" fill="none" xmlns="http://www.w3.org/2000/svg">
<path id="Vector" d="M22.0777 23.9846L13.86 15.767C13.2078 16.2887 12.4578 16.7018 11.6099 17.0061C10.7621 17.3105 9.85989 17.4627 8.90333 17.4627C6.53369 17.4627 4.5282 16.642 2.88684 15.0006C1.24548 13.3593 0.424805 11.3538 0.424805 8.98414C0.424805 6.6145 1.24548 4.60901 2.88684 2.96765C4.5282 1.32629 6.53369 0.505615 8.90333 0.505615C11.273 0.505615 13.2785 1.32629 14.9198 2.96765C16.5612 4.60901 17.3819 6.6145 17.3819 8.98414C17.3819 9.9407 17.2297 10.8429 16.9253 11.6908C16.621 12.5386 16.2079 13.2886 15.6862 13.9408L23.9038 22.1585L22.0777 23.9846ZM8.90333 14.8539C10.5338 14.8539 11.9197 14.2832 13.0611 13.1419C14.2024 12.0005 14.7731 10.6146 14.7731 8.98414C14.7731 7.35366 14.2024 5.96774 13.0611 4.8264C11.9197 3.68506 10.5338 3.11439 8.90333 3.11439C7.27285 3.11439 5.88693 3.68506 4.74559 4.8264C3.60425 5.96774 3.03358 7.35366 3.03358 8.98414C3.03358 10.6146 3.60425 12.0005 4.74559 13.1419C5.88693 14.2832 7.27285 14.8539 8.90333 14.8539Z" fill="white"/>
</svg>
