<svg width="1256" height="564" viewBox="0 0 1256 564" fill="none" xmlns="http://www.w3.org/2000/svg">
<path fill-rule="evenodd" clip-rule="evenodd" d="M1253.6 556.838C1253.6 559.6 1251.36 561.838 1248.6 561.838H1.16309C0.610801 561.838 0.163086 562.286 0.163086 562.838C0.163086 563.39 0.610801 563.838 1.16309 563.838H1254.52C1254.84 563.838 1255.1 563.581 1255.1 563.264V562.943C1255.1 562.804 1255.21 562.691 1255.35 562.691C1255.49 562.691 1255.6 562.578 1255.6 562.438V2.63281C1255.6 2.62842 1255.6 2.62482 1255.59 2.62482C1255.59 2.62482 1255.59 2.62122 1255.59 2.61682V1.62482C1255.59 1.07251 1255.14 0.624817 1254.59 0.624817L641.63 0.624878C641.078 0.624878 640.63 1.07257 640.63 1.62488C640.63 2.17719 641.078 2.62488 641.63 2.62488L1248.6 2.62482C1251.36 2.62482 1253.6 4.8634 1253.6 7.62482V556.838Z" fill="url(#paint0_linear_5_511)"/>
<defs>
<linearGradient id="paint0_linear_5_511" x1="0.163086" y1="282.231" x2="1255.6" y2="282.231" gradientUnits="userSpaceOnUse">
<stop offset="0.0520833" stop-color="#3F5EFB"/>
<stop offset="1" stop-color="#FC466B"/>
</linearGradient>
</defs>
</svg>
