<svg width="75" height="55" viewBox="0 0 75 55" fill="none" xmlns="http://www.w3.org/2000/svg">
<g id="Logo">
<path id="Vector" d="M13.0314 54.5352C9.68262 54.5352 6.82219 53.3352 4.45014 50.9352C2.07808 48.5353 0.836236 45.633 0.724609 42.2284C0.724609 41.7261 0.752516 41.2238 0.808329 40.7214C0.864142 40.2191 0.947862 39.7168 1.05949 39.2145L8.09194 11.0847C8.87333 8.07076 10.464 5.62894 12.864 3.7592C15.2639 1.88946 17.9988 0.95459 21.0685 0.95459H53.7192C56.7889 0.95459 59.5237 1.88946 61.9237 3.7592C64.3237 5.62894 65.9143 8.07076 66.6957 11.0847L73.7282 39.2145C73.8398 39.7168 73.9375 40.2331 74.0212 40.7633C74.1049 41.2935 74.1468 41.8098 74.1468 42.3121C74.1468 45.7167 72.9328 48.605 70.505 50.9771C68.0771 53.3492 65.1609 54.5352 61.7563 54.5352C59.4121 54.5352 57.2354 53.9212 55.2261 52.6934C53.2169 51.4655 51.7099 49.7911 50.7053 47.6702L48.3611 42.8144C48.0821 42.2563 47.6635 41.8377 47.1053 41.5586C46.5472 41.2796 45.9612 41.14 45.3472 41.14H29.4405C28.8265 41.14 28.2405 41.2796 27.6824 41.5586C27.1242 41.8377 26.7056 42.2563 26.4266 42.8144L24.0824 47.6702C23.0778 49.7911 21.5708 51.4655 19.5615 52.6934C17.5523 53.9212 15.3756 54.5352 13.0314 54.5352ZM13.2826 47.8376C14.343 47.8376 15.3058 47.5586 16.1709 47.0004C17.036 46.4423 17.6918 45.6888 18.1383 44.74L20.4825 39.968C21.3197 38.2378 22.5475 36.8843 24.1661 35.9076C25.7847 34.9308 27.5428 34.4425 29.4405 34.4425H45.3472C47.2449 34.4425 49.003 34.9448 50.6215 35.9494C52.2401 36.9541 53.4959 38.2936 54.3889 39.968L56.7331 44.74C57.1796 45.6888 57.8354 46.4423 58.7005 47.0004C59.5656 47.5586 60.5284 47.8376 61.5888 47.8376C63.1516 47.8376 64.4911 47.3213 65.6074 46.2888C66.7236 45.2563 67.3097 43.9586 67.3655 42.3958C67.3655 42.4517 67.3097 41.9214 67.198 40.8052L60.1656 12.7591C59.7749 11.2521 58.9935 10.0242 57.8214 9.0754C56.6494 8.12658 55.2819 7.65217 53.7192 7.65217H21.0685C19.5057 7.65217 18.1244 8.12658 16.9244 9.0754C15.7244 10.0242 14.957 11.2521 14.6221 12.7591L7.58962 40.8052C7.478 41.14 7.42218 41.6424 7.42218 42.3121C7.42218 43.8749 7.99427 45.1865 9.13844 46.2469C10.2826 47.3074 11.664 47.8376 13.2826 47.8376ZM42.417 24.3961C43.3658 24.3961 44.1612 24.0752 44.803 23.4333C45.4449 22.7915 45.7658 21.9961 45.7658 21.0473C45.7658 20.0985 45.4449 19.3032 44.803 18.6613C44.1612 18.0195 43.3658 17.6985 42.417 17.6985C41.4682 17.6985 40.6729 18.0195 40.031 18.6613C39.3892 19.3032 39.0682 20.0985 39.0682 21.0473C39.0682 21.9961 39.3892 22.7915 40.031 23.4333C40.6729 24.0752 41.4682 24.3961 42.417 24.3961ZM49.1146 17.6985C50.0634 17.6985 50.8588 17.3776 51.5006 16.7358C52.1425 16.0939 52.4634 15.2986 52.4634 14.3497C52.4634 13.4009 52.1425 12.6056 51.5006 11.9637C50.8588 11.3219 50.0634 11.001 49.1146 11.001C48.1658 11.001 47.3704 11.3219 46.7286 11.9637C46.0867 12.6056 45.7658 13.4009 45.7658 14.3497C45.7658 15.2986 46.0867 16.0939 46.7286 16.7358C47.3704 17.3776 48.1658 17.6985 49.1146 17.6985ZM49.1146 31.0937C50.0634 31.0937 50.8588 30.7728 51.5006 30.1309C52.1425 29.4891 52.4634 28.6937 52.4634 27.7449C52.4634 26.7961 52.1425 26.0007 51.5006 25.3589C50.8588 24.717 50.0634 24.3961 49.1146 24.3961C48.1658 24.3961 47.3704 24.717 46.7286 25.3589C46.0867 26.0007 45.7658 26.7961 45.7658 27.7449C45.7658 28.6937 46.0867 29.4891 46.7286 30.1309C47.3704 30.7728 48.1658 31.0937 49.1146 31.0937ZM55.8122 24.3961C56.761 24.3961 57.5563 24.0752 58.1982 23.4333C58.84 22.7915 59.161 21.9961 59.161 21.0473C59.161 20.0985 58.84 19.3032 58.1982 18.6613C57.5563 18.0195 56.761 17.6985 55.8122 17.6985C54.8633 17.6985 54.068 18.0195 53.4262 18.6613C52.7843 19.3032 52.4634 20.0985 52.4634 21.0473C52.4634 21.9961 52.7843 22.7915 53.4262 23.4333C54.068 24.0752 54.8633 24.3961 55.8122 24.3961ZM25.6731 29.4193C26.3986 29.4193 26.9986 29.1821 27.4731 28.7077C27.9475 28.2333 28.1847 27.6333 28.1847 26.9077V23.5589H31.5335C32.259 23.5589 32.859 23.3217 33.3334 22.8473C33.8078 22.3729 34.045 21.7729 34.045 21.0473C34.045 20.3217 33.8078 19.7218 33.3334 19.2473C32.859 18.7729 32.259 18.5357 31.5335 18.5357H28.1847V15.1869C28.1847 14.4614 27.9475 13.8614 27.4731 13.387C26.9986 12.9126 26.3986 12.6753 25.6731 12.6753C24.9475 12.6753 24.3475 12.9126 23.8731 13.387C23.3987 13.8614 23.1615 14.4614 23.1615 15.1869V18.5357H19.8127C19.0871 18.5357 18.4871 18.7729 18.0127 19.2473C17.5383 19.7218 17.3011 20.3217 17.3011 21.0473C17.3011 21.7729 17.5383 22.3729 18.0127 22.8473C18.4871 23.3217 19.0871 23.5589 19.8127 23.5589H23.1615V26.9077C23.1615 27.6333 23.3987 28.2333 23.8731 28.7077C24.3475 29.1821 24.9475 29.4193 25.6731 29.4193Z" fill="white"/>
</g>
</svg>
