<svg width="51" height="51" viewBox="0 0 51 51" fill="none" xmlns="http://www.w3.org/2000/svg">
<circle cx="25.3756" cy="25.4975" r="23.7526" stroke="white" stroke-width="2"/>
<g clip-path="url(#clip0_5_550)">
<path d="M29.4317 17.6661C29.4317 16.58 29.0044 15.5384 28.2437 14.7705C27.483 14.0025 26.4514 13.571 25.3756 13.571C24.2999 13.571 23.2682 14.0025 22.5075 14.7705C21.7469 15.5384 21.3195 16.58 21.3195 17.6661C21.3195 18.7522 21.7469 19.7938 22.5075 20.5618C23.2682 21.3298 24.2999 21.7612 25.3756 21.7612C26.4514 21.7612 27.483 21.3298 28.2437 20.5618C29.0044 19.7938 29.4317 18.7522 29.4317 17.6661ZM18.8859 17.6661C18.8859 15.9284 19.5696 14.2618 20.7867 13.0331C22.0037 11.8043 23.6544 11.114 25.3756 11.114C27.0968 11.114 28.7475 11.8043 29.9646 13.0331C31.1816 14.2618 31.8654 15.9284 31.8654 17.6661C31.8654 19.4039 31.1816 21.0704 29.9646 22.2992C28.7475 23.528 27.0968 24.2183 25.3756 24.2183C23.6544 24.2183 22.0037 23.528 20.7867 22.2992C19.5696 21.0704 18.8859 19.4039 18.8859 17.6661ZM16.5181 34.8655H34.2331C33.7819 31.6253 31.0237 29.1324 27.6927 29.1324H23.0586C19.7275 29.1324 16.9694 31.6253 16.5181 34.8655ZM14.0186 35.8023C14.0186 30.7602 18.0645 26.6753 23.0586 26.6753H27.6927C32.6867 26.6753 36.7327 30.7602 36.7327 35.8023C36.7327 36.6418 36.0584 37.3226 35.2269 37.3226H15.5244C14.6929 37.3226 14.0186 36.6418 14.0186 35.8023Z" fill="white"/>
</g>
<defs>
<clipPath id="clip0_5_550">
<rect width="22.7141" height="26.2086" fill="white" transform="translate(14.0186 11.114)"/>
</clipPath>
</defs>
</svg>
