<svg width="25" height="26" viewBox="0 0 25 26" fill="none" xmlns="http://www.w3.org/2000/svg">
<g id="In">
<path id="Vector" d="M23.2143 0.140381H1.78013C0.797991 0.140381 0 0.949533 0 1.94284V23.3379C0 24.3312 0.797991 25.1404 1.78013 25.1404H23.2143C24.1964 25.1404 25 24.3312 25 23.3379V1.94284C25 0.949533 24.1964 0.140381 23.2143 0.140381ZM7.5558 21.569H3.85045V9.63815H7.56138V21.569H7.5558ZM5.70312 8.00868C4.51451 8.00868 3.55469 7.04328 3.55469 5.86025C3.55469 4.67721 4.51451 3.71181 5.70312 3.71181C6.88616 3.71181 7.85156 4.67721 7.85156 5.86025C7.85156 7.04886 6.89174 8.00868 5.70312 8.00868ZM21.4453 21.569H17.74V15.7654C17.74 14.3815 17.7121 12.6013 15.8147 12.6013C13.8839 12.6013 13.5882 14.108 13.5882 15.6649V21.569H9.88281V9.63815H13.4375V11.2676H13.4877C13.9844 10.3301 15.1953 9.34239 16.9978 9.34239C20.7478 9.34239 21.4453 11.8145 21.4453 15.0288V21.569Z" fill="white"/>
</g>
</svg>
