<svg width="29" height="30" viewBox="0 0 29 30" fill="none" xmlns="http://www.w3.org/2000/svg">
<g id="Telegram" >
<path id="Vector" d="M14.5 0.140381C6.49185 0.140381 0 6.63223 0 14.6404C0 22.6485 6.49185 29.1404 14.5 29.1404C22.5082 29.1404 29 22.6485 29 14.6404C29 6.63223 22.5082 0.140381 14.5 0.140381ZM21.221 10.0016C21.0028 12.2944 20.0586 17.8583 19.578 20.4263C19.3748 21.5129 18.9745 21.8773 18.5871 21.9129C17.7452 21.9904 17.1057 21.3565 16.2901 20.8218C15.0139 19.9853 14.293 19.4645 13.0542 18.6482C11.6226 17.7048 12.5506 17.1865 13.3665 16.3387C13.58 16.1169 17.2901 12.7423 17.3619 12.4362C17.3708 12.3979 17.3794 12.255 17.2944 12.1799C17.2094 12.1048 17.0845 12.1302 16.9942 12.1506C16.8662 12.1797 14.8275 13.5273 10.878 16.1932C10.2993 16.5906 9.7752 16.7842 9.30555 16.774C8.78782 16.7629 7.79194 16.4814 7.05156 16.2406C6.1435 15.9455 5.42177 15.7894 5.48462 15.2881C5.51737 15.027 5.87694 14.76 6.56335 14.4871C10.7904 12.6455 13.6091 11.4313 15.0194 10.8446C19.0462 9.16967 19.8829 8.87874 20.4283 8.86903C20.5483 8.86704 20.8165 8.89674 20.9902 9.03771C21.1058 9.13813 21.1794 9.27826 21.1966 9.43038C21.226 9.61926 21.2342 9.81085 21.221 10.0016Z" fill="white"/>
</g>
</svg>
