<svg width="29" height="25" viewBox="0 0 29 25" fill="none" xmlns="http://www.w3.org/2000/svg">
<g id="Twiter" >
<path id="Vector" d="M26.0191 6.12161C26.0375 6.3841 26.0375 6.64664 26.0375 6.90913C26.0375 14.9153 20.0572 24.1404 9.12694 24.1404C5.75952 24.1404 2.63136 23.1466 0 21.4217C0.478445 21.4779 0.938426 21.4966 1.43528 21.4966C4.2138 21.4966 6.77158 20.5404 8.81411 18.9092C6.20115 18.8529 4.01142 17.1091 3.25696 14.7091C3.62501 14.7653 3.99301 14.8029 4.37947 14.8029C4.91308 14.8029 5.44675 14.7278 5.94355 14.5966C3.2202 14.0341 1.17762 11.5966 1.17762 8.65287V8.5779C1.96884 9.0279 2.88897 9.30915 3.86415 9.3466C2.26326 8.25908 1.21444 6.40285 1.21444 4.30284C1.21444 3.17786 1.5088 2.14661 2.02406 1.2466C4.94984 4.9216 9.34772 7.32156 14.2792 7.58411C14.1872 7.1341 14.1319 6.6654 14.1319 6.19664C14.1319 2.8591 16.7817 0.140381 20.0755 0.140381C21.7868 0.140381 23.3325 0.871629 24.4182 2.05288C25.7614 1.79039 27.0495 1.28412 28.1904 0.590384C27.7487 1.99667 26.8103 3.17792 25.5774 3.92786C26.7735 3.79668 27.9328 3.4591 29 2.9904C28.1905 4.19035 27.1784 5.25906 26.0191 6.12161Z" fill="white"/>
</g>
</svg>
